<?xml version="1.0" encoding="UTF-8" standalone="no"?>
<svg width="76px" height="100px" viewBox="0 0 76 100" version="1.1" xmlns="http://www.w3.org/2000/svg" xmlns:xlink="http://www.w3.org/1999/xlink" xmlns:sketch="http://www.bohemiancoding.com/sketch/ns">
    <!-- Generator: Sketch 3.2.2 (9983) - http://www.bohemiancoding.com/sketch -->
    <title>icon-marketing</title>
    <desc>Created with Sketch.</desc>
    <defs></defs>
    <g id="Welcome" stroke="none" stroke-width="1" fill="none" fill-rule="evenodd" sketch:type="MSPage">
        <g id="Desktop-HD" sketch:type="MSArtboardGroup" transform="translate(-692.000000, -723.000000)">
            <g id="Prestations" sketch:type="MSLayerGroup" transform="translate(-7.000000, 79.000000)">
                <g id="icon-marketing" transform="translate(700.000000, 644.000000)" sketch:type="MSShapeGroup">
                    <path d="M74.615625,6.25 C74.615625,2.7984375 71.8171875,0 68.365625,0 L5.865625,0 C2.4140625,0 -0.384375,2.7984375 -0.384375,6.25 L-0.384375,93.75 C-0.384375,97.2015625 2.4140625,100 5.865625,100 L68.365625,100 C71.8171875,100 74.615625,97.2015625 74.615625,93.75 L74.615625,6.25 Z" id="Fill-457" fill="#FFFFFF"></path>
                    <path d="M68.365625,9.375 L5.865625,9.375 L5.865625,84.375 L68.365625,84.375 L68.365625,9.375 Z" id="Fill-458" fill="#3E3E3F"></path>
                    <path d="M40.240625,92.1875 C40.240625,93.9140625 38.8421875,95.3125 37.115625,95.3125 C35.3890625,95.3125 33.990625,93.9140625 33.990625,92.1875 C33.990625,90.4609375 35.3890625,89.0625 37.115625,89.0625 C38.8421875,89.0625 40.240625,90.4609375 40.240625,92.1875" id="Fill-459" fill="#CFD3D4"></path>
                    <path d="M46.490625,55.2082813 C46.490625,56.3582813 45.5578125,57.2910938 44.4078125,57.2910938 C43.25625,57.2910938 42.3234375,56.3582813 42.3234375,55.2082813 C42.3234375,54.0582812 43.25625,53.1254687 44.4078125,53.1254687 C45.5578125,53.1254687 46.490625,54.0582812 46.490625,55.2082813" id="Fill-460" fill="#B6BCBD"></path>
                    <path d="M58.990625,54.6875 L51.178125,54.6875 L51.178125,56.25 L58.990625,56.25 L58.990625,54.6875 Z" id="Fill-461" fill="#B6BCBD"></path>
                    <path d="M46.490625,65.1042187 C46.490625,66.2542188 45.5578125,67.1870313 44.4078125,67.1870313 C43.25625,67.1870313 42.3234375,66.2542188 42.3234375,65.1042187 C42.3234375,63.9542187 43.25625,63.0214062 44.4078125,63.0214062 C45.5578125,63.0214062 46.490625,63.9542187 46.490625,65.1042187" id="Fill-462" fill="#B6BCBD"></path>
                    <path d="M58.990625,64.5828125 L51.178125,64.5828125 L51.178125,66.1453125 L58.990625,66.1453125 L58.990625,64.5828125 Z" id="Fill-463" fill="#B6BCBD"></path>
                    <path d="M38.678125,4.6875 C38.678125,5.55 37.978125,6.25 37.115625,6.25 C36.253125,6.25 35.553125,5.55 35.553125,4.6875 C35.553125,3.825 36.253125,3.125 37.115625,3.125 C37.978125,3.125 38.678125,3.825 38.678125,4.6875" id="Fill-464" fill="#3E3E3F"></path>
                    <path d="M5.879375,68.75 L65.2403125,9.3890625 L5.879375,9.3890625 L5.879375,68.75 Z" id="Fill-465" fill="#5B5C5F"></path>
                    <path d="M26.178125,32.8125 L16.803125,32.8125 L16.803125,43.75 L26.178125,43.75 L26.178125,32.8125 Z" id="Fill-466" fill="#FBE158"></path>
                    <path d="M41.803125,26.5625 L32.428125,26.5625 L32.428125,43.75 L41.803125,43.75 L41.803125,26.5625 Z" id="Fill-467" fill="#11B3A0"></path>
                    <path d="M58.990625,18.75 L49.615625,18.75 L49.615625,43.75 L58.990625,43.75 L58.990625,18.75 Z" id="Fill-468" fill="#059BBF"></path>
                    <path d="M37.115625,62.5 C37.115625,69.403125 31.51875,75 24.615625,75 C17.7125,75 12.115625,69.403125 12.115625,62.5 C12.115625,55.596875 17.7125,50 24.615625,50 C31.51875,50 37.115625,55.596875 37.115625,62.5" id="Fill-469" fill="#FACB1B"></path>
                    <path d="M37.115625,62.5 C37.115625,69.40625 31.521875,75 24.615625,75 C19.365625,75 14.8765625,71.7703125 13.021875,67.1875 L36.115625,57.5734375 C36.7609375,59.0828125 37.115625,60.75 37.115625,62.5" id="Fill-470" fill="#46C5B7"></path>
                    <path d="M37.1351563,62.5051562 C37.1351563,66.9114062 34.8539063,70.7864062 31.4054688,73.0160937 L24.6460938,62.3598437 L36.1351563,57.5785937 C36.7804688,59.0879687 37.1351563,60.7551562 37.1351563,62.5051562" id="Fill-471" fill="#21B2D1"></path>
                    <path d="M36.115625,57.5729687 L24.615625,62.3651562 L24.615625,49.9995312 C29.771875,49.9995312 34.1984375,53.1245312 36.115625,57.5729687" id="Fill-472" fill="#FA5655"></path>
                </g>
            </g>
        </g>
    </g>
</svg>