<?xml version="1.0" encoding="UTF-8" standalone="no"?>
<svg width="89px" height="88px" viewBox="0 0 89 88" version="1.1" xmlns="http://www.w3.org/2000/svg" xmlns:xlink="http://www.w3.org/1999/xlink" xmlns:sketch="http://www.bohemiancoding.com/sketch/ns">
    <!-- Generator: Sketch 3.2.2 (9983) - http://www.bohemiancoding.com/sketch -->
    <title>icon-formations</title>
    <desc>Created with Sketch.</desc>
    <defs></defs>
    <g id="Welcome" stroke="none" stroke-width="1" fill="none" fill-rule="evenodd" sketch:type="MSPage">
        <g id="Desktop-HD" sketch:type="MSArtboardGroup" transform="translate(-358.000000, -729.000000)">
            <g id="Prestations" sketch:type="MSLayerGroup" transform="translate(-7.000000, 79.000000)">
                <g id="icon-formations" transform="translate(365.000000, 650.000000)" sketch:type="MSShapeGroup">
                    <path d="M0.66175,5.28 C0.66175,2.363625 3.025375,0 5.94175,0 L44.66175,0 L66.66175,18.48 L66.66175,82.72 C66.66175,85.636375 64.298125,88 61.38175,88 L5.94175,88 C3.025375,88 0.66175,85.636375 0.66175,82.72 L0.66175,5.28 Z" id="Fill-392" fill="#FFFFFF"></path>
                    <path d="M44.66175,0 L44.66175,13.2 C44.66175,16.116375 47.025375,18.48 49.94175,18.48 L66.66175,18.48 L44.66175,0 Z" id="Fill-393" fill="#F0F1F1"></path>
                    <path d="M74.91175,25.4375 L81.78675,11 L88.66175,25.4375 L88.66175,78.375 L74.91175,78.375 L74.91175,25.4375 Z" id="Fill-394" fill="#F4D0A1"></path>
                    <path d="M88.66175,33 L88.66175,25.4375 L81.78675,11 L81.78675,33 L88.66175,33 Z" id="Fill-395" fill="#EDBC7C"></path>
                    <path d="M88.66175,83.875 C88.66175,86.153375 86.815125,88 84.53675,88 L79.03675,88 C76.758375,88 74.91175,86.153375 74.91175,83.875 L74.91175,81.125 L88.66175,81.125 L88.66175,83.875 Z" id="Fill-396" fill="#F89392"></path>
                    <path d="M54.28675,30.25 C54.28675,31.00625 53.668,31.625 52.91175,31.625 L32.28675,31.625 C31.5305,31.625 30.91175,31.00625 30.91175,30.25 C30.91175,29.49375 31.5305,28.875 32.28675,28.875 L52.91175,28.875 C53.668,28.875 54.28675,29.49375 54.28675,30.25" id="Fill-397" fill="#E2E4E5"></path>
                    <path d="M46.03675,37.125 C46.03675,37.88125 45.418,38.5 44.66175,38.5 L32.28675,38.5 C31.5305,38.5 30.91175,37.88125 30.91175,37.125 C30.91175,36.36875 31.5305,35.75 32.28675,35.75 L44.66175,35.75 C45.418,35.75 46.03675,36.36875 46.03675,37.125" id="Fill-398" fill="#E2E4E5"></path>
                    <path d="M54.28675,48.125 C54.28675,48.88125 53.668,49.5 52.91175,49.5 L32.28675,49.5 C31.5305,49.5 30.91175,48.88125 30.91175,48.125 C30.91175,47.36875 31.5305,46.75 32.28675,46.75 L52.91175,46.75 C53.668,46.75 54.28675,47.36875 54.28675,48.125" id="Fill-399" fill="#E2E4E5"></path>
                    <path d="M46.03675,55 C46.03675,55.75625 45.418,56.375 44.66175,56.375 L32.28675,56.375 C31.5305,56.375 30.91175,55.75625 30.91175,55 C30.91175,54.24375 31.5305,53.625 32.28675,53.625 L44.66175,53.625 C45.418,53.625 46.03675,54.24375 46.03675,55" id="Fill-400" fill="#E2E4E5"></path>
                    <path d="M54.28675,66 C54.28675,66.75625 53.668,67.375 52.91175,67.375 L32.28675,67.375 C31.5305,67.375 30.91175,66.75625 30.91175,66 C30.91175,65.24375 31.5305,64.625 32.28675,64.625 L52.91175,64.625 C53.668,64.625 54.28675,65.24375 54.28675,66" id="Fill-401" fill="#E2E4E5"></path>
                    <path d="M46.03675,72.875 C46.03675,73.63125 45.418,74.25 44.66175,74.25 L32.28675,74.25 C31.5305,74.25 30.91175,73.63125 30.91175,72.875 C30.91175,72.11875 31.5305,71.5 32.28675,71.5 L44.66175,71.5 C45.418,71.5 46.03675,72.11875 46.03675,72.875" id="Fill-402" fill="#E2E4E5"></path>
                    <path d="M17.2542875,39.875 L12.0650375,34.68575 C11.5274125,34.148125 11.5274125,33.27775 12.0650375,32.7415 C12.6012875,32.203875 13.4716625,32.203875 14.0092875,32.7415 L17.0700375,35.800875 L22.9797875,28.70725 C23.4665375,28.12425 24.3341625,28.045875 24.9171625,28.53125 C25.5001625,29.018 25.5799125,29.88425 25.0931625,30.468625 L17.2542875,39.875 Z" id="Fill-403" fill="#11B3A0"></path>
                    <path d="M17.2542875,57.75 L12.0650375,52.56075 C11.5274125,52.023125 11.5274125,51.15275 12.0650375,50.6165 C12.6012875,50.078875 13.4716625,50.078875 14.0092875,50.6165 L17.0700375,53.675875 L22.9797875,46.58225 C23.4665375,45.99925 24.3341625,45.920875 24.9171625,46.40625 C25.5001625,46.893 25.5799125,47.75925 25.0931625,48.343625 L17.2542875,57.75 Z" id="Fill-404" fill="#11B3A0"></path>
                    <path d="M17.2542875,75.625 L12.0650375,70.43575 C11.5274125,69.898125 11.5274125,69.02775 12.0650375,68.4915 C12.6012875,67.953875 13.4716625,67.953875 14.0092875,68.4915 L17.0700375,71.550875 L22.9797875,64.45725 C23.4665375,63.87425 24.3341625,63.795875 24.9171625,64.28125 C25.5001625,64.768 25.5799125,65.63425 25.0931625,66.218625 L17.2542875,75.625 Z" id="Fill-405" fill="#11B3A0"></path>
                    <path d="M88.66175,81.125 L74.91175,81.125 L74.91175,77 L88.66175,77 L88.66175,81.125 Z" id="Fill-406" fill="#FACB1B"></path>
                    <path d="M81.78675,81.125 L74.91175,81.125 L74.91175,78.375 L81.78675,78.375 L81.78675,81.125 Z" id="Fill-407" fill="#FBE158"></path>
                    <path d="M81.8049,10.97855 L79.251525,16.339675 C79.955525,17.2733 80.835525,17.85355 81.8049,17.85355 C82.774275,17.85355 83.654275,17.2733 84.358275,16.339675 L81.8049,10.97855 Z" id="Fill-408" fill="#3E3E3F"></path>
                    <path d="M85.22425,27.5 C83.6375,27.5 82.301,26.42475 81.906375,24.963125 C81.86925,24.82975 81.70425,24.82975 81.667125,24.963125 C81.2725,26.42475 79.936,27.5 78.34925,27.5 C76.90275,27.5 75.663875,26.60625 75.1565,25.339875 C75.102875,25.2065 74.91175,25.243625 74.91175,25.388 L74.91175,78.375 L88.66175,78.375 L88.66175,25.388 C88.66175,25.243625 88.470625,25.2065 88.417,25.339875 C87.909625,26.60625 86.67075,27.5 85.22425,27.5" id="Fill-409" fill="#0484AB"></path>
                    <path d="M74.91175,78.375 L74.91175,25.427875 C74.91175,25.27525 75.113875,25.23675 75.173,25.378375 C75.688625,26.624125 76.9165,27.5 78.34925,27.5 C79.942875,27.5 81.2835,26.415125 81.672625,24.943875 C81.691875,24.872375 81.78675,24.880625 81.78675,24.95625 L81.78675,78.375 L74.91175,78.375 Z" id="Fill-410" fill="#21B2D1"></path>
                    <path d="M74.91175,81.125 L74.91175,83.875 C74.91175,86.153375 76.758375,88 79.03675,88 L81.78675,88 L81.78675,81.125 L74.91175,81.125 Z" id="Fill-411" fill="#F8B4B4"></path>
                </g>
            </g>
        </g>
    </g>
</svg>