<?xml version="1.0" encoding="UTF-8" standalone="no"?>
<svg width="92px" height="81px" viewBox="0 0 92 81" version="1.1" xmlns="http://www.w3.org/2000/svg" xmlns:xlink="http://www.w3.org/1999/xlink" xmlns:sketch="http://www.bohemiancoding.com/sketch/ns">
    <!-- Generator: Sketch 3.2.2 (9983) - http://www.bohemiancoding.com/sketch -->
    <title>icon-identite</title>
    <desc>Created with Sketch.</desc>
    <defs></defs>
    <g id="Welcome" stroke="none" stroke-width="1" fill="none" fill-rule="evenodd" sketch:type="MSPage">
        <g id="Desktop-HD" sketch:type="MSArtboardGroup" transform="translate(-992.000000, -732.000000)">
            <g id="Prestations" sketch:type="MSLayerGroup" transform="translate(-7.000000, 79.000000)">
                <g id="icon-identite" transform="translate(999.000000, 653.000000)" sketch:type="MSShapeGroup">
                    <path d="M91.6502188,62.1387947 C91.6502188,64.4224263 89.7989375,66.2726368 87.5139844,66.2726368 L4.78645313,66.2726368 C2.5015,66.2726368 0.65021875,64.4224263 0.65021875,62.1387947 L0.65021875,4.26358421 C0.65021875,1.97995263 2.5015,0.129742105 4.78645313,0.129742105 L87.5139844,0.129742105 C89.7989375,0.129742105 91.6502188,1.97995263 91.6502188,4.26358421 L91.6502188,62.1387947 Z" id="Fill-473" fill="#3E3E3F"></path>
                    <path d="M58.5589219,76.8661579 L33.7400937,76.8661579 L33.7400937,66.2722105 L58.5589219,66.2722105 L58.5589219,76.8661579 Z" id="Fill-474" fill="#E2E4E5"></path>
                    <path d="M66.8321016,78.9330789 C66.8321016,80.0741842 65.9064609,80.9992895 64.7632734,80.9992895 L27.5371641,80.9992895 C26.3939766,80.9992895 25.4683359,80.0741842 25.4683359,78.9330789 C25.4683359,77.7919737 26.3939766,76.8654474 27.5371641,76.8654474 L64.7632734,76.8654474 C65.9064609,76.8654474 66.8321016,77.7919737 66.8321016,78.9330789" id="Fill-475" fill="#F0F1F1"></path>
                    <path d="M91.6502188,62.1387947 L91.6502188,49.7372684 L0.65021875,49.7372684 L0.65021875,62.1387947 C0.65021875,64.4210053 2.50292188,66.2726368 4.78645313,66.2726368 L87.5139844,66.2726368 C89.7975156,66.2726368 91.6502188,64.4210053 91.6502188,62.1387947" id="Fill-476" fill="#FFFFFF"></path>
                    <path d="M46.1502188,55.5505105 C44.6529844,55.5505105 43.4358594,56.7669316 43.4358594,58.2633 C43.4358594,59.7582474 44.6529844,60.9760895 46.1502188,60.9760895 C47.6474531,60.9760895 48.8645781,59.7582474 48.8645781,58.2633 C48.8645781,56.7669316 47.6474531,55.5505105 46.1502188,55.5505105 M46.1502188,63.8181947 C43.0860781,63.8181947 40.5921094,61.3256684 40.5921094,58.2633 C40.5921094,55.1995105 43.0860781,52.7084053 46.1502188,52.7084053 C49.2157813,52.7084053 51.7083281,55.1995105 51.7083281,58.2633 C51.7083281,61.3256684 49.2157813,63.8181947 46.1502188,63.8181947" id="Fill-477" fill="#CFD3D4"></path>
                    <path d="M0.65021875,4.13398421 L0.65021875,49.6076684 L28.6952813,49.6076684 L78.3315156,0.000142105263 L4.78645313,0.000142105263 C2.50292188,0.000142105263 0.65021875,1.85177368 0.65021875,4.13398421" id="Fill-478" fill="#5B5C5F"></path>
                    <path d="M12.7623187,10.1947737 C13.0239437,10.1947737 13.2173187,10.3937211 13.2173187,10.6424053 C13.2173187,10.8967737 13.0239437,11.0971421 12.7623187,11.0971421 C12.5078031,11.0971421 12.3144281,10.8967737 12.3144281,10.6424053 C12.3144281,10.3937211 12.5078031,10.1947737 12.7623187,10.1947737 M13.6780062,10.6424053 C13.6780062,9.2583 13.3410219,8.69414211 12.7623187,8.69414211 C12.190725,8.69414211 11.8466312,9.2583 11.8466312,10.6424053 C11.8466312,12.0321947 12.190725,12.5963526 12.7623187,12.5963526 C13.3410219,12.5963526 13.6780062,12.0321947 13.6780062,10.6424053 M11.1925687,10.6424053 C11.1925687,9.07214211 11.7286156,8.19108947 12.7623187,8.19108947 C13.7960219,8.19108947 14.3320687,9.07214211 14.3320687,10.6424053 C14.3320687,12.2183526 13.7960219,13.0994053 12.7623187,13.0994053 C11.7286156,13.0994053 11.1925687,12.2183526 11.1925687,10.6424053" id="Fill-479" fill="#FFFFFF"></path>
                    <path d="M16.8713953,8.96954211 L15.7353172,9.65733158 L15.4310359,9.21680526 L16.9467547,8.27464737 L17.5055516,8.27464737 L17.5055516,12.5079632 L18.4766922,12.5079632 L18.4766922,13.0167 L15.7068797,13.0167 L15.7068797,12.5079632 L16.8713953,12.5079632 L16.8713953,8.96954211 Z" id="Fill-480" fill="#FFFFFF"></path>
                    <path d="M26.3294234,8.91412105 L26.6322828,9.38875263 L24.2222047,10.8623842 L26.6322828,12.3417 L26.3024078,12.8035421 L23.6776266,11.1650684 L23.6776266,10.5525947 L26.3294234,8.91412105 Z" id="Fill-481" fill="#FFFFFF"></path>
                    <path d="M30.1423234,13.0171263 L30.1423234,10.7931789 L28.4204328,10.7931789 L28.4204328,13.0171263 L27.7663703,13.0171263 L27.7663703,8.27365263 L28.4204328,8.27365263 L28.4204328,10.2560211 L30.1423234,10.2560211 L30.1423234,8.27365263 L30.7963859,8.27365263 L30.7963859,13.0171263 L30.1423234,13.0171263 Z" id="Fill-482" fill="#FFFFFF"></path>
                    <path d="M33.72815,8.82473684 L33.72815,13.0168421 L33.0740875,13.0168421 L33.0740875,8.82473684 L31.6067125,8.82473684 L31.6067125,8.27478947 L35.2154312,8.27478947 L35.1471812,8.82473684 L33.72815,8.82473684 Z" id="Fill-483" fill="#FFFFFF"></path>
                    <path d="M38.78775,13.0171263 L38.6498281,10.5871263 C38.6157031,9.91923158 38.6157031,9.14902105 38.6228125,8.99696842 L38.6014844,8.99696842 L37.8507344,12.1701789 L37.2236875,12.1701789 L36.4388125,8.99696842 L36.4117969,8.99696842 C36.4117969,9.15612632 36.4260156,9.97465263 36.3975781,10.5871263 L36.2809844,13.0171263 L35.6738438,13.0171263 L35.9425781,8.27365263 L36.8113438,8.27365263 L37.5407656,11.4411789 L37.5692031,11.4411789 L38.2645,8.27365263 L39.1389531,8.27365263 L39.4076875,13.0171263 L38.78775,13.0171263 Z" id="Fill-484" fill="#FFFFFF"></path>
                    <path d="M40.5069391,13.0171263 L40.5069391,8.27365263 L41.1610016,8.27365263 L41.1610016,12.4458632 L43.3165641,12.4458632 L43.2412047,13.0171263 L40.5069391,13.0171263 Z" id="Fill-485" fill="#FFFFFF"></path>
                    <path d="M47.2814625,10.5524526 L47.2814625,11.1649263 L44.6566812,12.8034 L44.3268062,12.3415579 L46.7368844,10.8622421 L44.3268062,9.38861053 L44.6296656,8.91397895 L47.2814625,10.5524526 Z" id="Fill-486" fill="#FFFFFF"></path>
                    <path d="M12.7623187,18.4498105 C13.0239437,18.4498105 13.2173187,18.6487579 13.2173187,18.8960211 C13.2173187,19.1518105 13.0239437,19.3507579 12.7623187,19.3507579 C12.5078031,19.3507579 12.3144281,19.1518105 12.3144281,18.8960211 C12.3144281,18.6487579 12.5078031,18.4498105 12.7623187,18.4498105 M13.6780062,18.8960211 C13.6780062,17.5133368 13.3410219,16.9491789 12.7623187,16.9491789 C12.190725,16.9491789 11.8466312,17.5133368 11.8466312,18.8960211 C11.8466312,20.2872316 12.190725,20.8513895 12.7623187,20.8513895 C13.3410219,20.8513895 13.6780062,20.2872316 13.6780062,18.8960211 M11.1925687,18.8960211 C11.1925687,17.3271789 11.7286156,16.4461263 12.7623187,16.4461263 C13.7960219,16.4461263 14.3320687,17.3271789 14.3320687,18.8960211 C14.3320687,20.4733895 13.7960219,21.3544421 12.7623187,21.3544421 C11.7286156,21.3544421 11.1925687,20.4733895 11.1925687,18.8960211" id="Fill-487" fill="#FFFFFF"></path>
                    <path d="M16.1412625,20.7418263 L18.296825,20.7418263 L18.2214656,21.2718789 L15.3976219,21.2718789 L15.3976219,20.7688263 C17.0370437,19.1445632 17.5403875,18.4908789 17.5403875,17.7746684 C17.5403875,17.2659316 17.1948719,16.9760368 16.7341844,16.9760368 C16.3417469,16.9760368 16.0730125,17.1209842 15.78295,17.4847737 L15.3421687,17.1764053 C15.7147,16.7145632 16.1824969,16.4459842 16.7683094,16.4459842 C17.6356531,16.4459842 18.19445,16.9973526 18.19445,17.7547737 C18.19445,18.5804053 17.5403875,19.4060368 16.1412625,20.7418263" id="Fill-488" fill="#FFFFFF"></path>
                    <path d="M26.3294234,17.1688737 L26.6322828,17.6435053 L24.2222047,19.1171368 L26.6322828,20.5964526 L26.3024078,21.0582947 L23.6776266,19.4198211 L23.6776266,18.8073474 L26.3294234,17.1688737 Z" id="Fill-489" fill="#FFFFFF"></path>
                    <path d="M29.2745531,19.0550368 L28.502475,19.0550368 L28.502475,20.7418263 L29.2475375,20.7418263 C29.708225,20.7418263 30.2656,20.6110895 30.2656,19.9289842 C30.2656,19.2340895 29.8191312,19.0550368 29.2745531,19.0550368 M29.1707562,17.0456684 L28.502475,17.0456684 L28.502475,18.5320895 L29.2262094,18.5320895 C29.7778969,18.5320895 30.0807562,18.3047211 30.0807562,17.7675632 C30.0807562,17.2446158 29.7366625,17.0456684 29.1707562,17.0456684 M29.1579594,21.2718789 L27.8484125,21.2718789 L27.8484125,16.5298263 L29.0541625,16.5298263 C29.9016,16.5298263 30.7490375,16.7969842 30.7490375,17.7263526 C30.7490375,18.3317211 30.3210531,18.6486158 29.9215062,18.7395632 L29.9215062,18.7665632 C30.3978344,18.8560895 30.9552094,19.1303526 30.9552094,19.9161947 C30.9552094,20.9549842 30.0452094,21.2718789 29.1579594,21.2718789" id="Fill-490" fill="#FFFFFF"></path>
                    <path d="M33.4113562,16.983 C32.6392781,16.983 32.3293094,17.658 32.3293094,18.9099474 C32.3293094,20.1633158 32.6606062,20.817 33.4113562,20.817 C34.1820125,20.817 34.4919812,20.1562105 34.4919812,18.9028421 C34.4919812,17.6508947 34.1820125,16.983 33.4113562,16.983 M33.4113562,21.3541579 C32.2468406,21.3541579 31.6482312,20.3835789 31.6482312,18.9099474 C31.6482312,17.4647368 32.2468406,16.4458421 33.4113562,16.4458421 C34.5758719,16.4458421 35.1744812,17.4306316 35.1744812,18.9028421 C35.1744812,20.3494737 34.5758719,21.3541579 33.4113562,21.3541579" id="Fill-491" fill="#FFFFFF"></path>
                    <path d="M37.2034969,17.0520632 L36.6802469,17.0520632 L36.6802469,20.7553263 L37.2106062,20.7553263 C37.8859969,20.7553263 38.6012,20.4114316 38.6012,18.8766947 C38.6012,17.2652211 37.85045,17.0520632 37.2034969,17.0520632 M37.1352469,21.2711684 L36.0261844,21.2711684 L36.0261844,16.5291158 L37.0584656,16.5291158 C38.1817469,16.5291158 39.2979187,16.9071158 39.2979187,18.8766947 C39.2979187,20.8590632 38.1405125,21.2711684 37.1352469,21.2711684" id="Fill-492" fill="#FFFFFF"></path>
                    <path d="M42.0014719,19.4475316 L42.0014719,21.2721632 L41.3403,21.2721632 L41.3403,19.4546368 L39.7421125,16.5286895 L40.4658469,16.5286895 L41.6772844,18.8492684 L41.6986125,18.8492684 L42.9171594,16.5286895 L43.5996594,16.5286895 L42.0014719,19.4475316 Z" id="Fill-493" fill="#FFFFFF"></path>
                    <path d="M47.2814625,18.8072053 L47.2814625,19.4196789 L44.6566812,21.0581526 L44.3268062,20.5963105 L46.7368844,19.1169947 L44.3268062,17.6433632 L44.6296656,17.1687316 L47.2814625,18.8072053 Z" id="Fill-494" fill="#FFFFFF"></path>
                    <path d="M12.7623187,26.7044211 C13.0239437,26.7044211 13.2173187,26.9033684 13.2173187,27.1506316 C13.2173187,27.4064211 13.0239437,27.6053684 12.7623187,27.6053684 C12.5078031,27.6053684 12.3144281,27.4064211 12.3144281,27.1506316 C12.3144281,26.9033684 12.5078031,26.7044211 12.7623187,26.7044211 M13.6780062,27.1506316 C13.6780062,25.7679474 13.3410219,25.2037895 12.7623187,25.2037895 C12.190725,25.2037895 11.8466312,25.7679474 11.8466312,27.1506316 C11.8466312,28.5418421 12.190725,29.106 12.7623187,29.106 C13.3410219,29.106 13.6780062,28.5418421 13.6780062,27.1506316 M11.1925687,27.1506316 C11.1925687,25.5817895 11.7286156,24.7007368 12.7623187,24.7007368 C13.7960219,24.7007368 14.3320687,25.5817895 14.3320687,27.1506316 C14.3320687,28.728 13.7960219,29.6090526 12.7623187,29.6090526 C11.7286156,29.6090526 11.1925687,28.728 11.1925687,27.1506316" id="Fill-495" fill="#FFFFFF"></path>
                    <path d="M16.7063156,29.6089105 C16.1546281,29.6089105 15.5901437,29.4099632 15.2247219,28.9694368 L15.6384875,28.6255421 C15.9072219,28.9410158 16.2996594,29.0930684 16.6849875,29.0930684 C17.3262531,29.0930684 17.7115812,28.7349632 17.7115812,28.1565947 C17.7115812,27.4958053 17.304925,27.2755421 16.74755,27.2755421 L16.3821281,27.2755421 L16.4574875,26.7867 L16.7063156,26.7867 C17.1613156,26.7867 17.5878781,26.5323316 17.5878781,25.9823842 C17.5878781,25.4793316 17.20255,25.2036474 16.713425,25.2036474 C16.3067687,25.2036474 16.0238156,25.3485947 15.7138469,25.6370684 L15.3697531,25.2590684 C15.7764094,24.8725421 16.2442062,24.7005947 16.74755,24.7005947 C17.6561281,24.7005947 18.2206125,25.2448579 18.2206125,25.8914368 C18.2206125,26.4698053 17.79405,26.8975421 17.3191437,26.9870684 L17.3191437,27.0140684 C17.8423937,27.0481737 18.3727531,27.4403842 18.3727531,28.1637 C18.3727531,28.9822263 17.7044719,29.6089105 16.7063156,29.6089105" id="Fill-496" fill="#FFFFFF"></path>
                    <path d="M26.3294234,25.4236263 L26.6322828,25.8982579 L24.2222047,27.3718895 L26.6322828,28.8512053 L26.3024078,29.3130474 L23.6776266,27.6745737 L23.6776266,27.0621 L26.3294234,25.4236263 Z" id="Fill-497" fill="#FFFFFF"></path>
                    <path d="M30.1423234,29.5266316 L30.1423234,27.3026842 L28.4204328,27.3026842 L28.4204328,29.5266316 L27.7663703,29.5266316 L27.7663703,24.7845789 L28.4204328,24.7845789 L28.4204328,26.7669474 L30.1423234,26.7669474 L30.1423234,24.7845789 L30.7963859,24.7845789 L30.7963859,29.5266316 L30.1423234,29.5266316 Z" id="Fill-498" fill="#FFFFFF"></path>
                    <path d="M32.7705172,25.3068158 L32.7705172,26.8557632 L34.5194234,26.8557632 L34.5194234,27.3787105 L32.7705172,27.3787105 L32.7705172,29.0100789 L34.9132828,29.0100789 L34.9132828,29.5259211 L32.1164547,29.5259211 L32.1164547,24.7838684 L34.8578297,24.7838684 L34.7824703,25.3068158 L32.7705172,25.3068158 Z" id="Fill-499" fill="#FFFFFF"></path>
                    <path d="M36.7696828,27.8057368 L38.2782922,27.8057368 L37.5403391,25.3757368 L37.5133234,25.3757368 L36.7696828,27.8057368 Z M38.4361203,28.3357895 L36.6118547,28.3357895 L36.2464328,29.5266316 L35.5923703,29.5266316 L37.1279953,24.7845789 L37.9541047,24.7845789 L39.4897297,29.5266316 L38.8015422,29.5266316 L38.4361203,28.3357895 Z" id="Fill-500" fill="#FFFFFF"></path>
                    <path d="M41.3331906,25.3068158 L40.8099406,25.3068158 L40.8099406,29.0100789 L41.3403,29.0100789 C42.0156906,29.0100789 42.7308938,28.6661842 42.7308938,27.1314474 C42.7308938,25.5199737 41.9801438,25.3068158 41.3331906,25.3068158 M41.2649406,29.5259211 L40.1558781,29.5259211 L40.1558781,24.7838684 L41.1881594,24.7838684 C42.3114406,24.7838684 43.4276125,25.1618684 43.4276125,27.1314474 C43.4276125,29.1138158 42.2702063,29.5259211 41.2649406,29.5259211" id="Fill-501" fill="#FFFFFF"></path>
                    <path d="M45.1598828,25.3068158 L45.1598828,26.8557632 L46.9087891,26.8557632 L46.9087891,27.3787105 L45.1598828,27.3787105 L45.1598828,29.0100789 L47.3026484,29.0100789 L47.3026484,29.5259211 L44.5058203,29.5259211 L44.5058203,24.7838684 L47.2471953,24.7838684 L47.1718359,25.3068158 L45.1598828,25.3068158 Z" id="Fill-502" fill="#FFFFFF"></path>
                    <path d="M49.8406953,25.2933158 L49.1866328,25.2933158 L49.1866328,27.0142105 L49.8478047,27.0142105 C50.5089766,27.0142105 50.8871953,26.7669474 50.8871953,26.1260526 C50.8871953,25.5334737 50.5502109,25.2933158 49.8406953,25.2933158 M50.4464141,27.4348421 L51.8384297,29.5266316 L51.0592422,29.5266316 L49.7923516,27.5172632 L49.1866328,27.5172632 L49.1866328,29.5266316 L48.5325703,29.5266316 L48.5325703,24.7845789 L49.7781328,24.7845789 C50.9639766,24.7845789 51.5839141,25.2378947 51.5839141,26.1260526 C51.5839141,26.8351579 51.0876797,27.2685789 50.4464141,27.4348421" id="Fill-503" fill="#FFFFFF"></path>
                    <path d="M55.5409922,27.0619579 L55.5409922,27.6744316 L52.9162109,29.3129053 L52.5863359,28.8510632 L54.9964141,27.3717474 L52.5863359,25.8981158 L52.8891953,25.4234842 L55.5409922,27.0619579 Z" id="Fill-504" fill="#FFFFFF"></path>
                    <path d="M12.7623187,34.9597421 C13.0239437,34.9597421 13.2173187,35.1586895 13.2173187,35.4073737 C13.2173187,35.6617421 13.0239437,35.8606895 12.7623187,35.8606895 C12.5078031,35.8606895 12.3144281,35.6617421 12.3144281,35.4073737 C12.3144281,35.1586895 12.5078031,34.9597421 12.7623187,34.9597421 M13.6780062,35.4073737 C13.6780062,34.0232684 13.3410219,33.4591105 12.7623187,33.4591105 C12.190725,33.4591105 11.8466312,34.0232684 11.8466312,35.4073737 C11.8466312,36.7971632 12.190725,37.3613211 12.7623187,37.3613211 C13.3410219,37.3613211 13.6780062,36.7971632 13.6780062,35.4073737 M11.1925687,35.4073737 C11.1925687,33.8371105 11.7286156,32.9560579 12.7623187,32.9560579 C13.7960219,32.9560579 14.3320687,33.8371105 14.3320687,35.4073737 C14.3320687,36.9833211 13.7960219,37.8643737 12.7623187,37.8643737 C11.7286156,37.8643737 11.1925687,36.9833211 11.1925687,35.4073737" id="Fill-505" fill="#FFFFFF"></path>
                    <path d="M17.8561859,36.6458211 L17.8561859,37.7812421 L17.2433578,37.7812421 L17.2433578,36.6458211 L15.3010766,36.6458211 L15.3010766,36.1981895 L16.6916703,32.9567684 L17.2234516,33.1770316 L15.9693578,36.1427684 L17.2433578,36.1427684 L17.3059203,34.9036105 L17.8561859,34.9036105 L17.8561859,36.1427684 L18.4547953,36.1427684 L18.4547953,36.6458211 L17.8561859,36.6458211 Z" id="Fill-506" fill="#FFFFFF"></path>
                    <path d="M26.3294234,33.6789474 L26.6322828,34.1535789 L24.2222047,35.6272105 L26.6322828,37.1065263 L26.3024078,37.5683684 L23.6776266,35.9298947 L23.6776266,35.3174211 L26.3294234,33.6789474 Z" id="Fill-507" fill="#FFFFFF"></path>
                    <path d="M28.0692297,38.4975947 L27.5587766,38.2702263 L30.5006359,32.2065947 L31.0025578,32.4467526 L28.0692297,38.4975947 Z" id="Fill-508" fill="#FFFFFF"></path>
                    <path d="M34.2721594,37.7818105 L34.2721594,35.5592842 L32.5502687,35.5592842 L32.5502687,37.7818105 L31.8962062,37.7818105 L31.8962062,33.0397579 L32.5502687,33.0397579 L32.5502687,35.0221263 L34.2721594,35.0221263 L34.2721594,33.0397579 L34.9262219,33.0397579 L34.9262219,37.7818105 L34.2721594,37.7818105 Z" id="Fill-509" fill="#FFFFFF"></path>
                    <path d="M36.9003531,33.5621368 L36.9003531,35.1110842 L38.6492594,35.1110842 L38.6492594,35.6340316 L36.9003531,35.6340316 L36.9003531,37.2654 L39.0431188,37.2654 L39.0431188,37.7812421 L36.2462906,37.7812421 L36.2462906,33.0391895 L38.9876656,33.0391895 L38.9123063,33.5621368 L36.9003531,33.5621368 Z" id="Fill-510" fill="#FFFFFF"></path>
                    <path d="M40.8995188,36.0610579 L42.4081281,36.0610579 L41.670175,33.6310579 L41.6431594,33.6310579 L40.8995188,36.0610579 Z M42.5659562,36.5911105 L40.7416906,36.5911105 L40.3762688,37.7819526 L39.7222062,37.7819526 L41.2578312,33.0384789 L42.0839406,33.0384789 L43.6195656,37.7819526 L42.9313781,37.7819526 L42.5659562,36.5911105 Z" id="Fill-511" fill="#FFFFFF"></path>
                    <path d="M45.4630266,33.5621368 L44.9397766,33.5621368 L44.9397766,37.2654 L45.4701359,37.2654 C46.1455266,37.2654 46.8607297,36.9215053 46.8607297,35.3867684 C46.8607297,33.7752947 46.1099797,33.5621368 45.4630266,33.5621368 M45.3947766,37.7812421 L44.2857141,37.7812421 L44.2857141,33.0391895 L45.3179953,33.0391895 C46.4412766,33.0391895 47.5574484,33.4186105 47.5574484,35.3867684 C47.5574484,37.3691368 46.4000422,37.7812421 45.3947766,37.7812421" id="Fill-512" fill="#FFFFFF"></path>
                    <path d="M49.2897187,33.5621368 L49.2897187,35.1110842 L51.038625,35.1110842 L51.038625,35.6340316 L49.2897187,35.6340316 L49.2897187,37.2654 L51.4324844,37.2654 L51.4324844,37.7812421 L48.6356563,37.7812421 L48.6356563,33.0391895 L51.3770313,33.0391895 L51.3016719,33.5621368 L49.2897187,33.5621368 Z" id="Fill-513" fill="#FFFFFF"></path>
                    <path d="M53.9705313,33.5487789 L53.3164688,33.5487789 L53.3164688,35.2696737 L53.9776406,35.2696737 C54.6388125,35.2696737 55.0170313,35.0209895 55.0170313,34.3815158 C55.0170313,33.7889368 54.6800469,33.5487789 53.9705313,33.5487789 M54.57625,35.6888842 L55.9682656,37.7820947 L55.1890781,37.7820947 L53.9221875,35.7713053 L53.3164688,35.7713053 L53.3164688,37.7820947 L52.6624063,37.7820947 L52.6624063,33.0386211 L53.9079688,33.0386211 C55.0938125,33.0386211 55.71375,33.4933579 55.71375,34.3815158 C55.71375,35.0906211 55.2175156,35.5240421 54.57625,35.6888842" id="Fill-514" fill="#FFFFFF"></path>
                    <path d="M59.6708281,35.3172789 L59.6708281,35.9297526 L57.0460469,37.5682263 L56.7161719,37.1063842 L59.12625,35.6270684 L56.7161719,34.1534368 L57.0190313,33.6788053 L59.6708281,35.3172789 Z" id="Fill-515" fill="#FFFFFF"></path>
                </g>
            </g>
        </g>
    </g>
</svg>