<?xml version="1.0" encoding="UTF-8" standalone="no"?>
<svg width="197px" height="50px" viewBox="0 0 197 50" version="1.1" xmlns="http://www.w3.org/2000/svg" xmlns:xlink="http://www.w3.org/1999/xlink" xmlns:sketch="http://www.bohemiancoding.com/sketch/ns">
    <!-- Generator: Sketch 3.2.2 (9983) - http://www.bohemiancoding.com/sketch -->
    <title>Logo</title>
    <desc>Created with Sketch.</desc>
    <defs></defs>
    <g id="Welcome" stroke="none" stroke-width="1" fill="none" fill-rule="evenodd" sketch:type="MSPage">
        <g id="Desktop-HD" sketch:type="MSArtboardGroup" transform="translate(-254.000000, -17.000000)">
            <g id="Header" sketch:type="MSLayerGroup">
                <g id="Logo" transform="translate(256.000000, 16.000000)">
                    <text id="Adverti" sketch:type="MSTextLayer" font-family="Ubuntu" font-size="43.9442658" font-style="italic" font-weight="normal" fill="#FFFFFF">
                        <tspan x="50.2612461" y="41">Adverti</tspan>
                    </text>
                    <path d="M11.71685,39 L24.8233522,39" id="Line" stroke="#FFFFFF" stroke-width="2" stroke-linecap="square" sketch:type="MSShapeGroup"></path>
                    <path d="M11.71685,44 L24.8233522,44" id="Line-2" stroke="#FFFFFF" stroke-width="2" stroke-linecap="square" sketch:type="MSShapeGroup"></path>
                    <path d="M26.5183066,38.3945258 C32.545653,35.3444507 36.6858613,29.0269786 36.6858613,21.7282958 C36.6858613,11.4488737 28.4734515,3.11575563 18.3429307,3.11575563 C8.21240979,3.11575563 0,11.4488737 0,21.7282958 C0,29.130389 4.25835935,35.5232702 10.4248777,38.5221953 L10.4248775,42.9445915 C10.4248774,46.2613758 13.1185556,48.9501608 16.4174766,48.9501608 L20.525708,48.9501608 C23.8353293,48.9501608 26.5183072,46.2592165 26.518307,42.9476539 L26.5183066,38.3945258 Z" id="Oval-1" stroke="#FFFFFF" stroke-width="3" sketch:type="MSShapeGroup"></path>
                    <g id="Group" transform="translate(10.181539, 14.594855)" fill="#FFFFFF" sketch:type="MSShapeGroup">
                        <rect id="Rectangle-1" x="0" y="8.90025174" width="3.25854336" height="4.21871932" rx="5"></rect>
                        <rect id="Rectangle-2" x="3.91217406" y="6.26577722" width="3.25854336" height="6.85319384" rx="5"></rect>
                        <rect id="Rectangle-3" x="7.88448271" y="3.72030523" width="3.25854336" height="9.39866583" rx="5"></rect>
                        <rect id="Rectangle-4" x="11.8868587" y="0" width="3.25854336" height="13.1189711" rx="5"></rect>
                    </g>
                    <path d="M16.3510861,39.2306839 C16.3306774,39.1583434 16.3068135,39.0746195 16.2796798,38.9804547 C16.2023498,38.7120883 16.1141827,38.4133281 16.0166545,38.0916963 C15.7377944,37.1720615 15.4394143,36.2520972 15.1329246,35.3911787 C14.8218203,34.5172979 14.5190595,33.752053 14.2287509,33.1233372 C14.1132795,32.8732629 14.0001051,32.6455794 13.8890467,32.4411636 C13.4403082,31.6152086 12.8203108,30.8628912 11.9907475,30.0608897 C11.7662311,29.8438327 11.5364568,29.6322265 11.2466104,29.3728425 C11.2177453,29.3470111 10.7177602,28.9025515 10.5882317,28.7851448 C10.1604716,28.3974166 9.93064908,28.154558 9.83906252,27.9962282 C9.74980223,27.8419199 9.67427999,27.6519083 9.61416277,27.4338133 C9.5421991,27.1727414 9.49582981,26.8856836 9.47162373,26.5931166 C9.45546395,26.3978011 9.45129134,26.2312943 9.45354903,26.1123789 C9.45362084,26.1085964 9.45354901,25.5819936 8.72703313,25.5819936 C8.00051724,25.5819936 8.0002652,26.0470128 8.0002652,26.0470128 C7.99614749,26.2507018 8.00156823,26.467015 8.02221703,26.716587 C8.05357914,27.0956457 8.11438996,27.4721064 8.21341667,27.8313584 C8.30525731,28.1645406 8.42687568,28.4705285 8.584674,28.7433216 C8.77892002,29.0791235 9.0784219,29.3956138 9.61924963,29.8858283 C9.75499192,30.0088671 10.2603349,30.4580896 10.2845322,30.4797439 C10.5615684,30.727664 10.7785249,30.9274659 10.9874246,31.129425 C11.7186663,31.8363716 12.2495912,32.4806066 12.615276,33.1536917 C12.7099656,33.3279789 12.8089973,33.5272102 12.9116473,33.7495173 C13.1805227,34.3318158 13.4676868,35.0576392 13.7649383,35.8926078 C14.0626094,36.728755 14.3539694,37.6270751 14.6264663,38.525725 C14.721913,38.8404927 14.808139,39.132675 14.8836248,39.3946416 C14.9099768,39.4860934 14.9330809,39.5671515 14.9527482,39.6368645 C14.964435,39.6782894 14.9723101,39.7064753 14.9761849,39.7204719 L16.3764896,39.3213288 C16.3719748,39.3050206 16.3634449,39.2744911 16.3510861,39.2306839 Z" id="Path-5" fill="#FFFFFF" sketch:type="MSShapeGroup"></path>
                    <path d="M20.5607296,39.6368645 C20.580397,39.5671515 20.6035011,39.4860934 20.6298531,39.3946416 C20.7053389,39.132675 20.7915649,38.8404927 20.8870116,38.525725 C21.1595085,37.6270751 21.4508685,36.728755 21.7485396,35.8926078 C22.045791,35.0576392 22.3329552,34.3318158 22.6018306,33.7495173 C22.7044806,33.5272102 22.8035123,33.3279789 22.8982019,33.1536917 C23.2638867,32.4806066 23.7948116,31.8363716 24.5260533,31.129425 C24.734953,30.9274659 24.9519095,30.727664 25.2289457,30.4797439 C25.253143,30.4580896 25.758486,30.0088671 25.8942283,29.8858283 C26.435056,29.3956138 26.7345579,29.0791235 26.9288039,28.7433216 C27.0919824,28.4612275 27.2094347,28.1451501 27.2891868,27.8019374 C27.418245,27.2465357 27.4407494,26.6780323 27.4041454,26.1630642 C27.3983701,26.0818131 27.3922731,26.0203948 27.3875139,25.9819599 C27.3875139,25.9819599 27.2891865,25.5819936 26.6659342,25.5819936 C26.0426819,25.5819936 25.944355,26.1659501 25.944355,26.1659501 C25.946017,26.1793726 25.9495519,26.2149808 25.9534084,26.2692364 C25.9803143,26.6477655 25.9633378,27.0766222 25.8735011,27.4632343 C25.8251533,27.6712988 25.7582954,27.851221 25.6744154,27.9962282 C25.5828288,28.154558 25.3530063,28.3974166 24.9252462,28.7851448 C24.7957177,28.9025515 24.2957326,29.3470111 24.2668675,29.3728425 C23.9770211,29.6322265 23.7472468,29.8438327 23.5227304,30.0608897 C22.6931671,30.8628912 22.0731697,31.6152086 21.6244312,32.4411636 C21.5133728,32.6455794 21.4001984,32.8732629 21.284727,33.1233372 C20.9944184,33.752053 20.6916576,34.5172979 20.3805532,35.3911787 C20.0740636,36.2520972 19.7756835,37.1720615 19.4968234,38.0916963 C19.3992952,38.4133281 19.3111281,38.7120883 19.2337981,38.9804547 C19.2066644,39.0746195 19.1828005,39.1583434 19.1623918,39.2306839 C19.1500329,39.2744911 19.1415031,39.3050206 19.1369883,39.3213288 L20.537293,39.7204719 C20.5411678,39.7064753 20.5490429,39.6782894 20.5607296,39.6368645 Z" id="Path-6" fill="#FFFFFF" sketch:type="MSShapeGroup"></path>
                </g>
            </g>
        </g>
    </g>
</svg>